M48
; DRILL file {KiCad 6.0.6-3a73a75311~116~ubuntu22.04.1} date ti. 26. juli 2022 kl. 19.16 +0200
; FORMAT={-:-/ absolute / inch / decimal}
; #@! TF.CreationDate,2022-07-26T19:16:25+02:00
; #@! TF.GenerationSoftware,Kicad,Pcbnew,6.0.6-3a73a75311~116~ubuntu22.04.1
; #@! TF.FileFunction,NonPlated,1,2,NPTH
FMAT,2
INCH
; #@! TA.AperFunction,NonPlated,NPTH,ComponentDrill
T1C0.0354
; #@! TA.AperFunction,NonPlated,NPTH,ComponentDrill
T2C0.0670
; #@! TA.AperFunction,NonPlated,NPTH,ComponentDrill
T3C0.1181
; #@! TA.AperFunction,NonPlated,NPTH,ComponentDrill
T4C0.1350
%
G90
G05
T1
X-0.5058Y-0.6911
X-0.5058Y-0.6911
X-0.4873Y-0.5745
X-0.4873Y-0.5745
T2
X-0.438Y-1.4474
X-0.438Y-1.4474
X-0.0197Y-1.3353
X-0.0197Y-1.3353
X0.2465Y-1.264
X0.2465Y-1.264
X0.4449Y1.3386
X0.4449Y1.3386
X0.4449Y0.6693
X0.4449Y0.6693
X0.4449Y0.0
X0.4449Y0.0
X0.6648Y-1.1519
X0.6648Y-1.1519
X0.878Y1.3386
X0.878Y1.3386
X0.878Y0.6693
X0.878Y0.6693
X0.878Y0.0
X0.878Y0.0
X1.1614Y1.4173
X1.1614Y1.4173
X1.1614Y0.748
X1.1614Y0.748
X1.1614Y0.0787
X1.1614Y0.0787
X1.5945Y1.4173
X1.5945Y1.4173
X1.5945Y0.748
X1.5945Y0.748
X1.5945Y0.0787
X1.5945Y0.0787
X1.906Y0.4209
X1.906Y0.4209
X1.9527Y1.0886
X1.9527Y1.0886
X1.9994Y1.7562
X1.9994Y1.7562
X2.3381Y0.3907
X2.3381Y0.3907
X2.3848Y1.0583
X2.3848Y1.0583
X2.4314Y1.726
X2.4314Y1.726
X2.6448Y0.4876
X2.6448Y0.4876
X2.6915Y1.1553
X2.6915Y1.1553
X2.7382Y1.823
X2.7382Y1.823
X3.0768Y0.4574
X3.0768Y0.4574
X3.1235Y1.1251
X3.1235Y1.1251
X3.1702Y1.7927
X3.1702Y1.7927
X3.3515Y0.1139
X3.3515Y0.1139
X3.5134Y0.7633
X3.5134Y0.7633
X3.6753Y1.4127
X3.6753Y1.4127
X3.7717Y0.0091
X3.7717Y0.0091
X3.9336Y0.6585
X3.9336Y0.6585
X4.0955Y1.3079
X4.0955Y1.3079
T3
X-0.4572Y-1.2997
X-0.2895Y-1.1651
X-0.2895Y-1.1651
X-0.0769Y-1.1978
X0.2273Y-1.1163
X0.395Y-0.9817
X0.395Y-0.9817
X0.4646Y1.4862
X0.4646Y0.8169
X0.4646Y0.1476
X0.6076Y-1.0144
X0.6614Y1.5728
X0.6614Y1.5728
X0.6614Y0.9035
X0.6614Y0.9035
X0.6614Y0.2343
X0.6614Y0.2343
X0.8583Y1.4862
X0.8583Y0.8169
X0.8583Y0.1476
X1.1811Y1.565
X1.1811Y0.8957
X1.1811Y0.2264
X1.378Y1.6516
X1.378Y1.6516
X1.378Y0.9823
X1.378Y0.9823
X1.378Y0.313
X1.378Y0.313
X1.5748Y1.565
X1.5748Y0.8957
X1.5748Y0.2264
X1.936Y0.5668
X1.9827Y1.2345
X2.0294Y1.9021
X2.1384Y0.6395
X2.1384Y0.6395
X2.1851Y1.3071
X2.1851Y1.3071
X2.2318Y1.9748
X2.2318Y1.9748
X2.3287Y0.5393
X2.3754Y1.207
X2.4221Y1.8747
X2.6747Y0.6335
X2.7214Y1.3012
X2.7681Y1.9689
X2.8771Y0.7062
X2.8771Y0.7062
X2.9238Y1.3739
X2.9238Y1.3739
X2.9705Y2.0415
X2.9705Y2.0415
X3.0675Y0.6061
X3.1142Y1.2737
X3.1608Y1.9414
X3.4063Y0.2523
X3.5682Y0.9018
X3.6182Y0.2888
X3.6182Y0.2888
X3.7301Y1.5512
X3.7802Y0.9382
X3.7802Y0.9382
X3.7883Y0.1571
X3.9421Y1.5876
X3.9421Y1.5876
X3.9502Y0.8065
X4.1121Y1.4559
T4
X-0.2289Y-1.3914
X-0.2289Y-1.3914
X0.4556Y-1.208
X0.4556Y-1.208
X0.6614Y1.3386
X0.6614Y1.3386
X0.6614Y0.6693
X0.6614Y0.6693
X0.6614Y0.0
X0.6614Y0.0
X1.378Y1.4173
X1.378Y1.4173
X1.378Y0.748
X1.378Y0.748
X1.378Y0.0787
X1.378Y0.0787
X2.1221Y0.4058
X2.1221Y0.4058
X2.1687Y1.0734
X2.1687Y1.0734
X2.2154Y1.7411
X2.2154Y1.7411
X2.8608Y0.4725
X2.8608Y0.4725
X2.9075Y1.1402
X2.9075Y1.1402
X2.9542Y1.8078
X2.9542Y1.8078
X3.5616Y0.0615
X3.5616Y0.0615
X3.7235Y0.7109
X3.7235Y0.7109
X3.8854Y1.3603
X3.8854Y1.3603
T0
M30
