M48
; DRILL file {KiCad 6.0.6-3a73a75311~116~ubuntu22.04.1} date ti. 26. juli 2022 kl. 19.16 +0200
; FORMAT={-:-/ absolute / inch / decimal}
; #@! TF.CreationDate,2022-07-26T19:16:25+02:00
; #@! TF.GenerationSoftware,Kicad,Pcbnew,6.0.6-3a73a75311~116~ubuntu22.04.1
; #@! TF.FileFunction,Plated,1,2,PTH
FMAT,2
INCH
; #@! TA.AperFunction,Plated,PTH,ViaDrill
T1C0.0157
; #@! TA.AperFunction,Plated,PTH,ComponentDrill
T2C0.0157
; #@! TA.AperFunction,Plated,PTH,ComponentDrill
T3C0.0276
; #@! TA.AperFunction,Plated,PTH,ComponentDrill
T4C0.0433
; #@! TA.AperFunction,Plated,PTH,ComponentDrill
T5C0.0500
%
G90
G05
T1
X-0.35Y-0.95
X-0.33Y-0.64
X0.24Y0.45
X0.24Y0.3
X0.24Y0.16
X0.24Y-0.1
T2
X-0.1835Y0.8155
X-0.1835Y0.7155
X-0.1835Y0.6155
X-0.1835Y0.5155
X-0.1835Y0.4155
X-0.1835Y0.3155
X-0.1835Y0.2155
X-0.1835Y0.1155
X-0.1835Y0.0155
X-0.1835Y-0.0845
X-0.1835Y-0.1845
X-0.1835Y-0.2845
X-0.1235Y0.8155
X-0.1235Y0.7155
X-0.1235Y0.6155
X-0.1235Y0.5155
X-0.1235Y0.4155
X-0.1235Y0.3155
X-0.1235Y0.2155
X-0.1235Y0.1155
X-0.1235Y0.0155
X-0.1235Y-0.0845
X-0.1235Y-0.1845
X-0.1235Y-0.2845
T3
X-0.1918Y-0.5017
X-0.1327Y-0.5017
T4
X-0.4535Y0.8155
X-0.4535Y0.8155
X-0.4535Y0.7155
X-0.4535Y0.6155
X-0.4535Y0.5155
X-0.4535Y0.4155
X-0.4535Y0.3155
X-0.4535Y0.2155
X-0.4535Y0.1155
X-0.4535Y0.0155
X-0.4535Y-0.0845
X-0.4535Y-0.1845
X-0.4535Y-0.2845
X0.1465Y0.8155
X0.1465Y0.8155
X0.1465Y0.7155
X0.1465Y0.6155
X0.1465Y0.5155
X0.1465Y0.4155
X0.1465Y0.3155
X0.1465Y0.2155
X0.1465Y0.1155
X0.1465Y0.0155
X0.1465Y-0.0845
X0.1465Y-0.1845
X0.1465Y-0.2845
T5
X-0.3803Y-1.5868
X-0.1688Y-1.6158
X-0.1688Y-1.6158
X-0.0Y-1.4849
X0.3042Y-1.4034
X0.4646Y1.189
X0.4646Y0.5197
X0.4646Y-0.1496
X0.5158Y-1.4323
X0.5158Y-1.4323
X0.6614Y1.1063
X0.6614Y1.1063
X0.6614Y0.437
X0.6614Y0.437
X0.6614Y-0.2323
X0.6614Y-0.2323
X0.6845Y-1.3015
X0.8583Y1.189
X0.8583Y0.5197
X0.8583Y-0.1496
X1.1811Y1.2677
X1.1811Y0.5984
X1.1811Y-0.0709
X1.378Y1.185
X1.378Y1.185
X1.378Y0.5157
X1.378Y0.5157
X1.378Y-0.1535
X1.378Y-0.1535
X1.5748Y1.2677
X1.5748Y0.5984
X1.5748Y-0.0709
X1.9152Y0.2703
X1.9619Y0.9379
X2.0086Y1.6056
X2.1059Y0.1741
X2.1059Y0.1741
X2.1525Y0.8417
X2.1525Y0.8417
X2.1992Y1.5094
X2.1992Y1.5094
X2.308Y0.2428
X2.3547Y0.9105
X2.4014Y1.5781
X2.654Y0.337
X2.7007Y1.0047
X2.7474Y1.6723
X2.8446Y0.2408
X2.8446Y0.2408
X2.8913Y0.9085
X2.8913Y0.9085
X2.938Y1.5761
X2.938Y1.5761
X3.0467Y0.3096
X3.0934Y0.9772
X3.1401Y1.6449
X3.3344Y-0.0361
X3.4963Y0.6133
X3.5054Y-0.1639
X3.5054Y-0.1639
X3.6582Y1.2628
X3.6673Y0.4855
X3.6673Y0.4855
X3.7164Y-0.1313
X3.8292Y1.1349
X3.8292Y1.1349
X3.8783Y0.5181
X4.0402Y1.1675
T0
M30
