%TF.GenerationSoftware,KiCad,Pcbnew,6.0.6-3a73a75311~116~ubuntu22.04.1*%
%TF.CreationDate,2022-07-26T19:17:06+02:00*%
%TF.ProjectId,kiboard,6b69626f-6172-4642-9e6b-696361645f70,v1.0.0*%
%TF.SameCoordinates,Original*%
%TF.FileFunction,Soldermask,Top*%
%TF.FilePolarity,Negative*%
%FSLAX46Y46*%
G04 Gerber Fmt 4.6, Leading zero omitted, Abs format (unit mm)*
G04 Created by KiCad (PCBNEW 6.0.6-3a73a75311~116~ubuntu22.04.1) date 2022-07-26 19:17:06*
%MOMM*%
%LPD*%
G01*
G04 APERTURE LIST*
G04 Aperture macros list*
%AMRoundRect*
0 Rectangle with rounded corners*
0 $1 Rounding radius*
0 $2 $3 $4 $5 $6 $7 $8 $9 X,Y pos of 4 corners*
0 Add a 4 corners polygon primitive as box body*
4,1,4,$2,$3,$4,$5,$6,$7,$8,$9,$2,$3,0*
0 Add four circle primitives for the rounded corners*
1,1,$1+$1,$2,$3*
1,1,$1+$1,$4,$5*
1,1,$1+$1,$6,$7*
1,1,$1+$1,$8,$9*
0 Add four rect primitives between the rounded corners*
20,1,$1+$1,$2,$3,$4,$5,0*
20,1,$1+$1,$4,$5,$6,$7,0*
20,1,$1+$1,$6,$7,$8,$9,0*
20,1,$1+$1,$8,$9,$2,$3,0*%
%AMFreePoly0*
4,1,14,0.635355,0.435355,0.650000,0.400000,0.650000,0.200000,0.635355,0.164645,0.035355,-0.435355,0.000000,-0.450000,-0.035355,-0.435355,-0.635355,0.164645,-0.650000,0.200000,-0.650000,0.400000,-0.635355,0.435355,-0.600000,0.450000,0.600000,0.450000,0.635355,0.435355,0.635355,0.435355,$1*%
%AMFreePoly1*
4,1,16,0.635355,1.035355,0.650000,1.000000,0.650000,-0.250000,0.635355,-0.285355,0.600000,-0.300000,-0.600000,-0.300000,-0.635355,-0.285355,-0.650000,-0.250000,-0.650000,1.000000,-0.635355,1.035355,-0.600000,1.050000,-0.564645,1.035355,0.000000,0.470710,0.564645,1.035355,0.600000,1.050000,0.635355,1.035355,0.635355,1.035355,$1*%
G04 Aperture macros list end*
%ADD10C,0.250000*%
%ADD11C,0.100000*%
%ADD12C,1.100000*%
%ADD13C,1.000000*%
%ADD14RoundRect,0.050000X0.316858X-0.556418X0.473293X0.431270X-0.316858X0.556418X-0.473293X-0.431270X0*%
%ADD15RoundRect,0.050000X0.686014X-0.463017X0.795518X0.228365X-0.686014X0.463017X-0.795518X-0.228365X0*%
%ADD16RoundRect,0.050000X-0.577429X-0.769140X0.311490X-0.909931X0.577429X0.769140X-0.311490X0.909931X0*%
%ADD17C,3.100000*%
%ADD18C,1.801800*%
%ADD19C,3.529000*%
%ADD20RoundRect,0.050000X-1.387517X-1.206150X1.206150X-1.387517X1.387517X1.206150X-1.206150X1.387517X0*%
%ADD21RoundRect,0.050000X-1.300000X-1.300000X1.300000X-1.300000X1.300000X1.300000X-1.300000X1.300000X0*%
%ADD22C,2.132000*%
%ADD23RoundRect,0.050000X-0.919239X-1.592168X1.592168X-0.919239X0.919239X1.592168X-1.592168X0.919239X0*%
%ADD24C,1.700000*%
%ADD25FreePoly0,90.000000*%
%ADD26FreePoly0,270.000000*%
%ADD27RoundRect,0.050000X-0.800000X0.800000X-0.800000X-0.800000X0.800000X-0.800000X0.800000X0.800000X0*%
%ADD28FreePoly1,270.000000*%
%ADD29FreePoly1,90.000000*%
%ADD30RoundRect,0.050000X-1.575883X-0.946886X0.946886X-1.575883X1.575883X0.946886X-0.946886X1.575883X0*%
G04 APERTURE END LIST*
D10*
%TO.C,MCU1*%
X-4537000Y2933356D02*
G75*
G03*
X-4537000Y2933356I-125000J0D01*
G01*
X-4537000Y10553356D02*
G75*
G03*
X-4537000Y10553356I-125000J0D01*
G01*
X-3013000Y2933356D02*
G75*
G03*
X-3013000Y2933356I-125000J0D01*
G01*
X-3013000Y13093356D02*
G75*
G03*
X-3013000Y13093356I-125000J0D01*
G01*
X-4537000Y18173356D02*
G75*
G03*
X-4537000Y18173356I-125000J0D01*
G01*
X-3013000Y15633356D02*
G75*
G03*
X-3013000Y15633356I-125000J0D01*
G01*
X-4537000Y13093356D02*
G75*
G03*
X-4537000Y13093356I-125000J0D01*
G01*
X-4537000Y20713356D02*
G75*
G03*
X-4537000Y20713356I-125000J0D01*
G01*
X-4537000Y15633356D02*
G75*
G03*
X-4537000Y15633356I-125000J0D01*
G01*
X-4537000Y-4686644D02*
G75*
G03*
X-4537000Y-4686644I-125000J0D01*
G01*
X-4537000Y-2146644D02*
G75*
G03*
X-4537000Y-2146644I-125000J0D01*
G01*
X-3013000Y10553356D02*
G75*
G03*
X-3013000Y10553356I-125000J0D01*
G01*
X-3013000Y20713356D02*
G75*
G03*
X-3013000Y20713356I-125000J0D01*
G01*
X-3013000Y5473356D02*
G75*
G03*
X-3013000Y5473356I-125000J0D01*
G01*
X-4537000Y-7226644D02*
G75*
G03*
X-4537000Y-7226644I-125000J0D01*
G01*
X-3013000Y-2146644D02*
G75*
G03*
X-3013000Y-2146644I-125000J0D01*
G01*
X-3013000Y18173356D02*
G75*
G03*
X-3013000Y18173356I-125000J0D01*
G01*
X-3013000Y393356D02*
G75*
G03*
X-3013000Y393356I-125000J0D01*
G01*
X-4537000Y393356D02*
G75*
G03*
X-4537000Y393356I-125000J0D01*
G01*
X-4537000Y5473356D02*
G75*
G03*
X-4537000Y5473356I-125000J0D01*
G01*
X-3013000Y8013356D02*
G75*
G03*
X-3013000Y8013356I-125000J0D01*
G01*
X-4537000Y8013356D02*
G75*
G03*
X-4537000Y8013356I-125000J0D01*
G01*
X-3013000Y-4686644D02*
G75*
G03*
X-3013000Y-4686644I-125000J0D01*
G01*
X-3013000Y-7226644D02*
G75*
G03*
X-3013000Y-7226644I-125000J0D01*
G01*
G36*
X-8980000Y12585356D02*
G01*
X-9996000Y12585356D01*
X-9996000Y13601356D01*
X-8980000Y13601356D01*
X-8980000Y12585356D01*
G37*
D11*
X-8980000Y12585356D02*
X-9996000Y12585356D01*
X-9996000Y13601356D01*
X-8980000Y13601356D01*
X-8980000Y12585356D01*
G36*
X2196000Y-5194644D02*
G01*
X1180000Y-5194644D01*
X1180000Y-4178644D01*
X2196000Y-4178644D01*
X2196000Y-5194644D01*
G37*
X2196000Y-5194644D02*
X1180000Y-5194644D01*
X1180000Y-4178644D01*
X2196000Y-4178644D01*
X2196000Y-5194644D01*
G36*
X2196000Y-2654644D02*
G01*
X1180000Y-2654644D01*
X1180000Y-1638644D01*
X2196000Y-1638644D01*
X2196000Y-2654644D01*
G37*
X2196000Y-2654644D02*
X1180000Y-2654644D01*
X1180000Y-1638644D01*
X2196000Y-1638644D01*
X2196000Y-2654644D01*
G36*
X2196000Y-114644D02*
G01*
X1180000Y-114644D01*
X1180000Y901356D01*
X2196000Y901356D01*
X2196000Y-114644D01*
G37*
X2196000Y-114644D02*
X1180000Y-114644D01*
X1180000Y901356D01*
X2196000Y901356D01*
X2196000Y-114644D01*
G36*
X2196000Y7505356D02*
G01*
X1180000Y7505356D01*
X1180000Y8521356D01*
X2196000Y8521356D01*
X2196000Y7505356D01*
G37*
X2196000Y7505356D02*
X1180000Y7505356D01*
X1180000Y8521356D01*
X2196000Y8521356D01*
X2196000Y7505356D01*
G36*
X-8980000Y17665356D02*
G01*
X-9996000Y17665356D01*
X-9996000Y18681356D01*
X-8980000Y18681356D01*
X-8980000Y17665356D01*
G37*
X-8980000Y17665356D02*
X-9996000Y17665356D01*
X-9996000Y18681356D01*
X-8980000Y18681356D01*
X-8980000Y17665356D01*
G36*
X-8980000Y-2654644D02*
G01*
X-9996000Y-2654644D01*
X-9996000Y-1638644D01*
X-8980000Y-1638644D01*
X-8980000Y-2654644D01*
G37*
X-8980000Y-2654644D02*
X-9996000Y-2654644D01*
X-9996000Y-1638644D01*
X-8980000Y-1638644D01*
X-8980000Y-2654644D01*
G36*
X2196000Y2425356D02*
G01*
X1180000Y2425356D01*
X1180000Y3441356D01*
X2196000Y3441356D01*
X2196000Y2425356D01*
G37*
X2196000Y2425356D02*
X1180000Y2425356D01*
X1180000Y3441356D01*
X2196000Y3441356D01*
X2196000Y2425356D01*
G36*
X2196000Y4965356D02*
G01*
X1180000Y4965356D01*
X1180000Y5981356D01*
X2196000Y5981356D01*
X2196000Y4965356D01*
G37*
X2196000Y4965356D02*
X1180000Y4965356D01*
X1180000Y5981356D01*
X2196000Y5981356D01*
X2196000Y4965356D01*
G36*
X-8980000Y15125356D02*
G01*
X-9996000Y15125356D01*
X-9996000Y16141356D01*
X-8980000Y16141356D01*
X-8980000Y15125356D01*
G37*
X-8980000Y15125356D02*
X-9996000Y15125356D01*
X-9996000Y16141356D01*
X-8980000Y16141356D01*
X-8980000Y15125356D01*
G36*
X-8980000Y-7734644D02*
G01*
X-9996000Y-7734644D01*
X-9996000Y-6718644D01*
X-8980000Y-6718644D01*
X-8980000Y-7734644D01*
G37*
X-8980000Y-7734644D02*
X-9996000Y-7734644D01*
X-9996000Y-6718644D01*
X-8980000Y-6718644D01*
X-8980000Y-7734644D01*
G36*
X2196000Y20205356D02*
G01*
X1180000Y20205356D01*
X1180000Y21221356D01*
X2196000Y21221356D01*
X2196000Y20205356D01*
G37*
X2196000Y20205356D02*
X1180000Y20205356D01*
X1180000Y21221356D01*
X2196000Y21221356D01*
X2196000Y20205356D01*
G36*
X2196000Y10045356D02*
G01*
X1180000Y10045356D01*
X1180000Y11061356D01*
X2196000Y11061356D01*
X2196000Y10045356D01*
G37*
X2196000Y10045356D02*
X1180000Y10045356D01*
X1180000Y11061356D01*
X2196000Y11061356D01*
X2196000Y10045356D01*
G36*
X-8980000Y-5194644D02*
G01*
X-9996000Y-5194644D01*
X-9996000Y-4178644D01*
X-8980000Y-4178644D01*
X-8980000Y-5194644D01*
G37*
X-8980000Y-5194644D02*
X-9996000Y-5194644D01*
X-9996000Y-4178644D01*
X-8980000Y-4178644D01*
X-8980000Y-5194644D01*
G36*
X2196000Y15125356D02*
G01*
X1180000Y15125356D01*
X1180000Y16141356D01*
X2196000Y16141356D01*
X2196000Y15125356D01*
G37*
X2196000Y15125356D02*
X1180000Y15125356D01*
X1180000Y16141356D01*
X2196000Y16141356D01*
X2196000Y15125356D01*
G36*
X-8980000Y10045356D02*
G01*
X-9996000Y10045356D01*
X-9996000Y11061356D01*
X-8980000Y11061356D01*
X-8980000Y10045356D01*
G37*
X-8980000Y10045356D02*
X-9996000Y10045356D01*
X-9996000Y11061356D01*
X-8980000Y11061356D01*
X-8980000Y10045356D01*
G36*
X2196000Y12585356D02*
G01*
X1180000Y12585356D01*
X1180000Y13601356D01*
X2196000Y13601356D01*
X2196000Y12585356D01*
G37*
X2196000Y12585356D02*
X1180000Y12585356D01*
X1180000Y13601356D01*
X2196000Y13601356D01*
X2196000Y12585356D01*
G36*
X2196000Y17665356D02*
G01*
X1180000Y17665356D01*
X1180000Y18681356D01*
X2196000Y18681356D01*
X2196000Y17665356D01*
G37*
X2196000Y17665356D02*
X1180000Y17665356D01*
X1180000Y18681356D01*
X2196000Y18681356D01*
X2196000Y17665356D01*
G36*
X-8980000Y-114644D02*
G01*
X-9996000Y-114644D01*
X-9996000Y901356D01*
X-8980000Y901356D01*
X-8980000Y-114644D01*
G37*
X-8980000Y-114644D02*
X-9996000Y-114644D01*
X-9996000Y901356D01*
X-8980000Y901356D01*
X-8980000Y-114644D01*
G36*
X2196000Y-7734644D02*
G01*
X1180000Y-7734644D01*
X1180000Y-6718644D01*
X2196000Y-6718644D01*
X2196000Y-7734644D01*
G37*
X2196000Y-7734644D02*
X1180000Y-7734644D01*
X1180000Y-6718644D01*
X2196000Y-6718644D01*
X2196000Y-7734644D01*
G36*
X-8980000Y20205356D02*
G01*
X-9996000Y20205356D01*
X-9996000Y21221356D01*
X-8980000Y21221356D01*
X-8980000Y20205356D01*
G37*
X-8980000Y20205356D02*
X-9996000Y20205356D01*
X-9996000Y21221356D01*
X-8980000Y21221356D01*
X-8980000Y20205356D01*
G36*
X-8980000Y4965356D02*
G01*
X-9996000Y4965356D01*
X-9996000Y5981356D01*
X-8980000Y5981356D01*
X-8980000Y4965356D01*
G37*
X-8980000Y4965356D02*
X-9996000Y4965356D01*
X-9996000Y5981356D01*
X-8980000Y5981356D01*
X-8980000Y4965356D01*
G36*
X-8980000Y2425356D02*
G01*
X-9996000Y2425356D01*
X-9996000Y3441356D01*
X-8980000Y3441356D01*
X-8980000Y2425356D01*
G37*
X-8980000Y2425356D02*
X-9996000Y2425356D01*
X-9996000Y3441356D01*
X-8980000Y3441356D01*
X-8980000Y2425356D01*
G36*
X-8980000Y7505356D02*
G01*
X-9996000Y7505356D01*
X-9996000Y8521356D01*
X-8980000Y8521356D01*
X-8980000Y7505356D01*
G37*
X-8980000Y7505356D02*
X-9996000Y7505356D01*
X-9996000Y8521356D01*
X-8980000Y8521356D01*
X-8980000Y7505356D01*
%TD*%
D12*
%TO.C,*%
X-4870835Y-12743763D03*
X-3370835Y-12743763D03*
%TD*%
D13*
%TO.C,*%
X-12376837Y-14592064D03*
D14*
X-14268932Y-19506581D03*
X-10944169Y-12642176D03*
D13*
X-12846141Y-17555129D03*
D14*
X-12086141Y-19852301D03*
X-13126961Y-12296456D03*
D13*
X-12376837Y-14592064D03*
X-12846141Y-17555129D03*
D15*
X-10521180Y-14126623D03*
X-10990484Y-17089688D03*
X-11225135Y-18571220D03*
%TD*%
D16*
%TO.C,*%
X-11564097Y-24127329D03*
X-14922237Y-23595451D03*
%TD*%
D17*
%TO.C,S15*%
X60335511Y30657648D03*
D18*
X49599502Y27649226D03*
D17*
X55501155Y33201071D03*
X50359871Y31355213D03*
D19*
X55086104Y27265565D03*
D18*
X60572706Y26881904D03*
D17*
X55501155Y33201071D03*
D20*
X58768177Y32972619D03*
X47092848Y31583665D03*
%TD*%
D18*
%TO.C,S9*%
X29500000Y19000000D03*
D19*
X35000000Y19000000D03*
D17*
X35000000Y24950000D03*
X30000000Y22750000D03*
X35000000Y24950000D03*
D18*
X40500000Y19000000D03*
D17*
X40000000Y22750000D03*
D21*
X38275000Y24950000D03*
X26725000Y22750000D03*
%TD*%
D19*
%TO.C,S24*%
X75035924Y45919375D03*
D18*
X69549322Y46303036D03*
X80522526Y45535714D03*
D22*
X69783029Y42477414D03*
X79758670Y41779849D03*
X74624361Y40033747D03*
X74624361Y40033747D03*
%TD*%
D18*
%TO.C,S34*%
X6260738Y-32106019D03*
D19*
X11573330Y-30682514D03*
D18*
X16885922Y-29259009D03*
D22*
X7727213Y-35647127D03*
X17386472Y-33058937D03*
X13100362Y-36381476D03*
X13100362Y-36381476D03*
%TD*%
D17*
%TO.C,S31*%
X-11613536Y-33013130D03*
D18*
X-11125927Y-36764762D03*
D17*
X-7353308Y-29593998D03*
D19*
X-5813335Y-35341257D03*
D17*
X-7353308Y-29593998D03*
D18*
X-500743Y-33917752D03*
D17*
X-1954277Y-30424940D03*
D23*
X-4189901Y-28746366D03*
X-14776943Y-33860763D03*
%TD*%
D18*
%TO.C,S4*%
X11300000Y17000000D03*
D19*
X16800000Y17000000D03*
D18*
X22300000Y17000000D03*
D22*
X21800000Y13200000D03*
X11800000Y13200000D03*
X16800000Y11100000D03*
X16800000Y11100000D03*
%TD*%
D19*
%TO.C,S3*%
X16800000Y17000000D03*
D17*
X16800000Y22950000D03*
D18*
X11300000Y17000000D03*
D17*
X21800000Y20750000D03*
X11800000Y20750000D03*
D18*
X22300000Y17000000D03*
D17*
X16800000Y22950000D03*
D21*
X20075000Y22950000D03*
X8525000Y20750000D03*
%TD*%
D17*
%TO.C,S11*%
X35000000Y41950000D03*
D19*
X35000000Y36000000D03*
D18*
X29500000Y36000000D03*
D17*
X35000000Y41950000D03*
D18*
X40500000Y36000000D03*
D17*
X30000000Y39750000D03*
X40000000Y39750000D03*
D21*
X38275000Y41950000D03*
X26725000Y39750000D03*
%TD*%
D18*
%TO.C,S17*%
X61758566Y43840492D03*
D17*
X56687015Y50159659D03*
D19*
X56271964Y44224153D03*
D17*
X61521371Y47616236D03*
X51545731Y48313801D03*
X56687015Y50159659D03*
D18*
X50785362Y44607814D03*
D20*
X59954037Y49931207D03*
X48278708Y48542253D03*
%TD*%
D24*
%TO.C,MCU1*%
X-11520000Y5473356D03*
X3720000Y13093356D03*
X3720000Y393356D03*
D25*
X-9742000Y15633356D03*
D24*
X3720000Y20713356D03*
D26*
X1942000Y20713356D03*
D25*
X-9742000Y10553356D03*
D24*
X-11520000Y-7226644D03*
X3720000Y5473356D03*
D26*
X1942000Y15633356D03*
D27*
X-11520000Y20713356D03*
D24*
X3720000Y8013356D03*
X3720000Y-7226644D03*
X-11520000Y15633356D03*
X3720000Y18173356D03*
D26*
X1942000Y18173356D03*
D25*
X-9742000Y-7226644D03*
D26*
X1942000Y2933356D03*
X1942000Y-2146644D03*
D24*
X-11520000Y20713356D03*
D26*
X1942000Y-4686644D03*
D25*
X-9742000Y13093356D03*
D26*
X1942000Y13093356D03*
D24*
X-11520000Y8013356D03*
X-11520000Y-2146644D03*
X-11520000Y18173356D03*
X3720000Y10553356D03*
X-11520000Y13093356D03*
D26*
X1942000Y393356D03*
D24*
X3720000Y-4686644D03*
X-11520000Y10553356D03*
D25*
X-9742000Y18173356D03*
D24*
X-11520000Y393356D03*
D25*
X-9742000Y393356D03*
D24*
X-11520000Y2933356D03*
X3720000Y2933356D03*
D26*
X1942000Y10553356D03*
D25*
X-9742000Y2933356D03*
X-9742000Y5473356D03*
X-9742000Y20713356D03*
X-9742000Y8013356D03*
D24*
X-11520000Y-4686644D03*
X3720000Y15633356D03*
D25*
X-9742000Y-2146644D03*
X-9742000Y-4686644D03*
D26*
X1942000Y-7226644D03*
X1942000Y5473356D03*
X1942000Y8013356D03*
D24*
X3720000Y-2146644D03*
D28*
X926000Y20713356D03*
X926000Y18173356D03*
X926000Y15633356D03*
X926000Y13093356D03*
X926000Y10553356D03*
X926000Y8013356D03*
X926000Y5473356D03*
X926000Y2933356D03*
X926000Y393356D03*
X926000Y-2146644D03*
X926000Y-4686644D03*
X926000Y-7226644D03*
D29*
X-8726000Y-7226644D03*
X-8726000Y-4686644D03*
X-8726000Y-2146644D03*
X-8726000Y393356D03*
X-8726000Y2933356D03*
X-8726000Y5473356D03*
X-8726000Y8013356D03*
X-8726000Y10553356D03*
X-8726000Y13093356D03*
X-8726000Y15633356D03*
X-8726000Y18173356D03*
X-8726000Y20713356D03*
%TD*%
D17*
%TO.C,S7*%
X30000000Y5750000D03*
D18*
X40500000Y2000000D03*
D17*
X40000000Y5750000D03*
D19*
X35000000Y2000000D03*
D18*
X29500000Y2000000D03*
D17*
X35000000Y7950000D03*
X35000000Y7950000D03*
D21*
X38275000Y7950000D03*
X26725000Y5750000D03*
%TD*%
D18*
%TO.C,S1*%
X11300000Y0D03*
D17*
X16800000Y5950000D03*
X11800000Y3750000D03*
D18*
X22300000Y0D03*
D19*
X16800000Y0D03*
D17*
X16800000Y5950000D03*
X21800000Y3750000D03*
D21*
X20075000Y5950000D03*
X8525000Y3750000D03*
%TD*%
D19*
%TO.C,S12*%
X35000000Y36000000D03*
D18*
X40500000Y36000000D03*
X29500000Y36000000D03*
D22*
X30000000Y32200000D03*
X40000000Y32200000D03*
X35000000Y30100000D03*
X35000000Y30100000D03*
%TD*%
D17*
%TO.C,S13*%
X54315295Y16242482D03*
X49174011Y14396624D03*
X59149651Y13699059D03*
D18*
X59386846Y9923315D03*
X48413642Y10690637D03*
D17*
X54315295Y16242482D03*
D19*
X53900244Y10306976D03*
D20*
X57582317Y16014030D03*
X45906988Y14625076D03*
%TD*%
D18*
%TO.C,S14*%
X59386846Y9923315D03*
X48413642Y10690637D03*
D19*
X53900244Y10306976D03*
D22*
X48647349Y6865015D03*
X58622990Y6167450D03*
X53488681Y4421348D03*
X53488681Y4421348D03*
%TD*%
D19*
%TO.C,S2*%
X16800000Y0D03*
D18*
X11300000Y0D03*
X22300000Y0D03*
D22*
X11800000Y-3800000D03*
X21800000Y-3800000D03*
X16800000Y-5900000D03*
X16800000Y-5900000D03*
%TD*%
D19*
%TO.C,S20*%
X72664204Y12002197D03*
D18*
X78150806Y11618536D03*
X67177602Y12385858D03*
D22*
X67411309Y8560236D03*
X77386950Y7862671D03*
X72252641Y6116569D03*
X72252641Y6116569D03*
%TD*%
D19*
%TO.C,S18*%
X56271964Y44224153D03*
D18*
X50785362Y44607814D03*
X61758566Y43840492D03*
D22*
X60994710Y40084627D03*
X51019069Y40782192D03*
X55860401Y38338525D03*
X55860401Y38338525D03*
%TD*%
D18*
%TO.C,S23*%
X80522526Y45535714D03*
D17*
X75450975Y51854881D03*
X75450975Y51854881D03*
X80285331Y49311458D03*
D18*
X69549322Y46303036D03*
D17*
X70309691Y50009023D03*
D19*
X75035924Y45919375D03*
D20*
X78717997Y51626429D03*
X67042668Y50237475D03*
%TD*%
D19*
%TO.C,S32*%
X-5813335Y-35341257D03*
D18*
X-11125927Y-36764762D03*
X-500743Y-33917752D03*
D22*
X-193Y-37717680D03*
X-9659452Y-40305870D03*
X-4286303Y-41040219D03*
X-4286303Y-41040219D03*
%TD*%
D18*
%TO.C,S28*%
X89240109Y19387058D03*
D19*
X94576735Y18056488D03*
D18*
X99913361Y16725918D03*
D22*
X88805953Y15578974D03*
X98508910Y13159755D03*
X93149396Y12331743D03*
X93149396Y12331743D03*
%TD*%
D19*
%TO.C,S25*%
X90464063Y1561461D03*
D17*
X91903498Y7334721D03*
X96222749Y3990460D03*
X86519791Y6409679D03*
X91903498Y7334721D03*
D18*
X95800689Y230891D03*
X85127437Y2892031D03*
D30*
X95081217Y6542426D03*
X83342073Y7201974D03*
%TD*%
D19*
%TO.C,S26*%
X90464063Y1561461D03*
D18*
X95800689Y230891D03*
X85127437Y2892031D03*
D22*
X84693281Y-916053D03*
X94396238Y-3335272D03*
X89036724Y-4163284D03*
X89036724Y-4163284D03*
%TD*%
D18*
%TO.C,S30*%
X93352781Y35882086D03*
X104026033Y33220946D03*
D19*
X98689407Y34551516D03*
D22*
X92918625Y32074002D03*
X102621582Y29654783D03*
X97262068Y28826771D03*
X97262068Y28826771D03*
%TD*%
D19*
%TO.C,S5*%
X16800000Y34000000D03*
D17*
X11800000Y37750000D03*
D18*
X11300000Y34000000D03*
D17*
X21800000Y37750000D03*
D18*
X22300000Y34000000D03*
D17*
X16800000Y39950000D03*
X16800000Y39950000D03*
D21*
X20075000Y39950000D03*
X8525000Y37750000D03*
%TD*%
D19*
%TO.C,S22*%
X73850064Y28960786D03*
D18*
X79336666Y28577125D03*
X68363462Y29344447D03*
D22*
X68597169Y25518825D03*
X78572810Y24821260D03*
X73438501Y23075158D03*
X73438501Y23075158D03*
%TD*%
D18*
%TO.C,S16*%
X60572706Y26881904D03*
X49599502Y27649226D03*
D19*
X55086104Y27265565D03*
D22*
X59808850Y23126039D03*
X49833209Y23823604D03*
X54674541Y21379937D03*
X54674541Y21379937D03*
%TD*%
D18*
%TO.C,S10*%
X29500000Y19000000D03*
D19*
X35000000Y19000000D03*
D18*
X40500000Y19000000D03*
D22*
X30000000Y15200000D03*
X40000000Y15200000D03*
X35000000Y13100000D03*
X35000000Y13100000D03*
%TD*%
D18*
%TO.C,S21*%
X68363462Y29344447D03*
D17*
X74265115Y34896292D03*
D19*
X73850064Y28960786D03*
D17*
X69123831Y33050434D03*
D18*
X79336666Y28577125D03*
D17*
X74265115Y34896292D03*
X79099471Y32352869D03*
D20*
X77532137Y34667840D03*
X65856808Y33278886D03*
%TD*%
D17*
%TO.C,S29*%
X104448093Y36980515D03*
X100128842Y40324776D03*
D18*
X104026033Y33220946D03*
D19*
X98689407Y34551516D03*
D17*
X100128842Y40324776D03*
D18*
X93352781Y35882086D03*
D17*
X94745135Y39399734D03*
D30*
X103306561Y39532481D03*
X91567417Y40192029D03*
%TD*%
D18*
%TO.C,S27*%
X99913361Y16725918D03*
D17*
X100335421Y20485487D03*
D18*
X89240109Y19387058D03*
D17*
X96016170Y23829748D03*
X90632463Y22904706D03*
X96016170Y23829748D03*
D19*
X94576735Y18056488D03*
D30*
X99193889Y23037453D03*
X87454745Y23697001D03*
%TD*%
D18*
%TO.C,S6*%
X22300000Y34000000D03*
X11300000Y34000000D03*
D19*
X16800000Y34000000D03*
D22*
X11800000Y30200000D03*
X21800000Y30200000D03*
X16800000Y28100000D03*
X16800000Y28100000D03*
%TD*%
D17*
%TO.C,S19*%
X67937971Y16091845D03*
X73079255Y17937703D03*
X77913611Y15394280D03*
D18*
X78150806Y11618536D03*
D19*
X72664204Y12002197D03*
D17*
X73079255Y17937703D03*
D18*
X67177602Y12385858D03*
D20*
X76346277Y17709251D03*
X64670948Y16320297D03*
%TD*%
D19*
%TO.C,S8*%
X35000000Y2000000D03*
D18*
X29500000Y2000000D03*
X40500000Y2000000D03*
D22*
X40000000Y-1800000D03*
X30000000Y-1800000D03*
X35000000Y-3900000D03*
X35000000Y-3900000D03*
%TD*%
D17*
%TO.C,S33*%
X10033357Y-24935255D03*
X5773129Y-28354387D03*
X15432388Y-25766197D03*
X10033357Y-24935255D03*
D18*
X6260738Y-32106019D03*
D19*
X11573330Y-30682514D03*
D18*
X16885922Y-29259009D03*
D23*
X13196764Y-24087623D03*
X2609722Y-29202020D03*
%TD*%
M02*
