%TF.GenerationSoftware,KiCad,Pcbnew,6.0.6-3a73a75311~116~ubuntu22.04.1*%
%TF.CreationDate,2022-07-26T19:17:06+02:00*%
%TF.ProjectId,kiboard,6b69626f-6172-4642-9e6b-696361645f70,v1.0.0*%
%TF.SameCoordinates,Original*%
%TF.FileFunction,Paste,Top*%
%TF.FilePolarity,Positive*%
%FSLAX46Y46*%
G04 Gerber Fmt 4.6, Leading zero omitted, Abs format (unit mm)*
G04 Created by KiCad (PCBNEW 6.0.6-3a73a75311~116~ubuntu22.04.1) date 2022-07-26 19:17:06*
%MOMM*%
%LPD*%
G01*
G04 APERTURE LIST*
G04 Aperture macros list*
%AMRotRect*
0 Rectangle, with rotation*
0 The origin of the aperture is its center*
0 $1 length*
0 $2 width*
0 $3 Rotation angle, in degrees counterclockwise*
0 Add horizontal line*
21,1,$1,$2,0,0,$3*%
G04 Aperture macros list end*
%ADD10RotRect,1.000000X0.800000X81.000000*%
%ADD11RotRect,0.700000X1.500000X81.000000*%
%ADD12RotRect,0.900000X1.700000X351.000000*%
%ADD13RotRect,2.600000X2.600000X356.000000*%
%ADD14R,2.600000X2.600000*%
%ADD15RotRect,2.600000X2.600000X15.000000*%
%ADD16RotRect,2.600000X2.600000X346.000000*%
G04 APERTURE END LIST*
D10*
%TO.C,*%
X-14268932Y-19506581D03*
X-10944169Y-12642176D03*
X-12086141Y-19852301D03*
X-13126961Y-12296456D03*
D11*
X-10521180Y-14126623D03*
X-10990484Y-17089688D03*
X-11225135Y-18571220D03*
%TD*%
D12*
%TO.C,*%
X-11564097Y-24127329D03*
X-14922237Y-23595451D03*
%TD*%
D13*
%TO.C,S15*%
X58768177Y32972619D03*
X47092848Y31583665D03*
%TD*%
D14*
%TO.C,S9*%
X38275000Y24950000D03*
X26725000Y22750000D03*
%TD*%
D15*
%TO.C,S31*%
X-4189901Y-28746366D03*
X-14776943Y-33860763D03*
%TD*%
D14*
%TO.C,S3*%
X20075000Y22950000D03*
X8525000Y20750000D03*
%TD*%
%TO.C,S11*%
X38275000Y41950000D03*
X26725000Y39750000D03*
%TD*%
D13*
%TO.C,S17*%
X59954037Y49931207D03*
X48278708Y48542253D03*
%TD*%
D14*
%TO.C,S7*%
X38275000Y7950000D03*
X26725000Y5750000D03*
%TD*%
%TO.C,S1*%
X20075000Y5950000D03*
X8525000Y3750000D03*
%TD*%
D13*
%TO.C,S13*%
X57582317Y16014030D03*
X45906988Y14625076D03*
%TD*%
%TO.C,S23*%
X78717997Y51626429D03*
X67042668Y50237475D03*
%TD*%
D16*
%TO.C,S25*%
X95081217Y6542426D03*
X83342073Y7201974D03*
%TD*%
D14*
%TO.C,S5*%
X20075000Y39950000D03*
X8525000Y37750000D03*
%TD*%
D13*
%TO.C,S21*%
X77532137Y34667840D03*
X65856808Y33278886D03*
%TD*%
D16*
%TO.C,S29*%
X103306561Y39532481D03*
X91567417Y40192029D03*
%TD*%
%TO.C,S27*%
X99193889Y23037453D03*
X87454745Y23697001D03*
%TD*%
D13*
%TO.C,S19*%
X76346277Y17709251D03*
X64670948Y16320297D03*
%TD*%
D15*
%TO.C,S33*%
X13196764Y-24087623D03*
X2609722Y-29202020D03*
%TD*%
M02*
