%TF.GenerationSoftware,KiCad,Pcbnew,6.0.6-3a73a75311~116~ubuntu22.04.1*%
%TF.CreationDate,2022-07-26T19:17:06+02:00*%
%TF.ProjectId,kiboard,6b69626f-6172-4642-9e6b-696361645f70,v1.0.0*%
%TF.SameCoordinates,Original*%
%TF.FileFunction,Copper,L1,Top*%
%TF.FilePolarity,Positive*%
%FSLAX46Y46*%
G04 Gerber Fmt 4.6, Leading zero omitted, Abs format (unit mm)*
G04 Created by KiCad (PCBNEW 6.0.6-3a73a75311~116~ubuntu22.04.1) date 2022-07-26 19:17:06*
%MOMM*%
%LPD*%
G01*
G04 APERTURE LIST*
G04 Aperture macros list*
%AMRotRect*
0 Rectangle, with rotation*
0 The origin of the aperture is its center*
0 $1 length*
0 $2 width*
0 $3 Rotation angle, in degrees counterclockwise*
0 Add horizontal line*
21,1,$1,$2,0,0,$3*%
%AMFreePoly0*
4,1,5,0.125000,-0.500000,-0.125000,-0.500000,-0.125000,0.500000,0.125000,0.500000,0.125000,-0.500000,0.125000,-0.500000,$1*%
%AMFreePoly1*
4,1,6,0.600000,0.200000,0.000000,-0.400000,-0.600000,0.200000,-0.600000,0.400000,0.600000,0.400000,0.600000,0.200000,0.600000,0.200000,$1*%
%AMFreePoly2*
4,1,6,0.600000,-0.250000,-0.600000,-0.250000,-0.600000,1.000000,0.000000,0.400000,0.600000,1.000000,0.600000,-0.250000,0.600000,-0.250000,$1*%
%AMFreePoly3*
4,1,49,0.088388,4.152388,0.854389,3.386388,0.867708,3.368551,0.871189,3.365530,0.871982,3.362827,0.875852,3.357644,0.882333,3.327543,0.891000,3.298000,0.891000,0.766000,0.887805,0.743969,0.888131,0.739371,0.886780,0.736898,0.885852,0.730498,0.869154,0.704638,0.854389,0.677612,0.088388,-0.088388,0.064607,-0.106146,0.062500,-0.108253,0.061385,-0.108552,0.059644,-0.109852,
0.043810,-0.113261,0.000000,-0.125000,-0.004774,-0.123721,-0.009154,-0.124664,-0.028953,-0.117242,-0.062500,-0.108253,-0.068237,-0.102516,-0.075052,-0.099961,-0.087614,-0.083139,-0.108253,-0.062500,-0.111178,-0.051584,-0.117161,-0.043572,-0.118539,-0.024114,-0.125000,0.000000,-0.121239,0.014035,-0.122131,0.026629,-0.113759,0.041953,-0.108253,0.062500,-0.095642,0.075111,-0.088388,0.088388,
0.641000,0.817777,0.641000,3.246223,-0.088388,3.975612,-0.109852,4.004356,-0.124664,4.073154,-0.099961,4.139052,-0.043572,4.181161,0.026629,4.186131,0.088388,4.152388,0.088388,4.152388,$1*%
%AMFreePoly4*
4,1,49,0.088388,4.152388,0.850389,3.390388,0.863708,3.372551,0.867189,3.369530,0.867982,3.366827,0.871852,3.361644,0.878333,3.331543,0.887000,3.302000,0.887000,0.762000,0.883805,0.739969,0.884131,0.735371,0.882780,0.732898,0.881852,0.726498,0.865154,0.700638,0.850389,0.673612,0.088388,-0.088388,0.064607,-0.106146,0.062500,-0.108253,0.061385,-0.108552,0.059644,-0.109852,
0.043810,-0.113261,0.000000,-0.125000,-0.004774,-0.123721,-0.009154,-0.124664,-0.028953,-0.117242,-0.062500,-0.108253,-0.068237,-0.102516,-0.075052,-0.099961,-0.087614,-0.083139,-0.108253,-0.062500,-0.111178,-0.051584,-0.117161,-0.043572,-0.118539,-0.024114,-0.125000,0.000000,-0.121239,0.014035,-0.122131,0.026629,-0.113759,0.041953,-0.108253,0.062500,-0.095642,0.075111,-0.088388,0.088388,
0.637000,0.813777,0.637000,3.250223,-0.088388,3.975612,-0.109852,4.004356,-0.124664,4.073154,-0.099961,4.139052,-0.043572,4.181161,0.026629,4.186131,0.088388,4.152388,0.088388,4.152388,$1*%
G04 Aperture macros list end*
%TA.AperFunction,ComponentPad*%
%ADD10C,1.000000*%
%TD*%
%TA.AperFunction,SMDPad,CuDef*%
%ADD11RotRect,1.000000X0.800000X81.000000*%
%TD*%
%TA.AperFunction,SMDPad,CuDef*%
%ADD12RotRect,0.700000X1.500000X81.000000*%
%TD*%
%TA.AperFunction,SMDPad,CuDef*%
%ADD13RotRect,0.900000X1.700000X351.000000*%
%TD*%
%TA.AperFunction,SMDPad,CuDef*%
%ADD14RotRect,2.600000X2.600000X356.000000*%
%TD*%
%TA.AperFunction,SMDPad,CuDef*%
%ADD15R,2.600000X2.600000*%
%TD*%
%TA.AperFunction,ComponentPad*%
%ADD16C,2.032000*%
%TD*%
%TA.AperFunction,SMDPad,CuDef*%
%ADD17RotRect,2.600000X2.600000X15.000000*%
%TD*%
%TA.AperFunction,ComponentPad*%
%ADD18C,1.600000*%
%TD*%
%TA.AperFunction,SMDPad,CuDef*%
%ADD19FreePoly0,90.000000*%
%TD*%
%TA.AperFunction,SMDPad,CuDef*%
%ADD20FreePoly1,90.000000*%
%TD*%
%TA.AperFunction,SMDPad,CuDef*%
%ADD21FreePoly0,270.000000*%
%TD*%
%TA.AperFunction,SMDPad,CuDef*%
%ADD22FreePoly1,270.000000*%
%TD*%
%TA.AperFunction,ComponentPad*%
%ADD23R,1.600000X1.600000*%
%TD*%
%TA.AperFunction,ComponentPad*%
%ADD24C,0.800000*%
%TD*%
%TA.AperFunction,SMDPad,CuDef*%
%ADD25FreePoly2,270.000000*%
%TD*%
%TA.AperFunction,SMDPad,CuDef*%
%ADD26FreePoly3,270.000000*%
%TD*%
%TA.AperFunction,SMDPad,CuDef*%
%ADD27FreePoly4,90.000000*%
%TD*%
%TA.AperFunction,SMDPad,CuDef*%
%ADD28FreePoly2,90.000000*%
%TD*%
%TA.AperFunction,SMDPad,CuDef*%
%ADD29RotRect,2.600000X2.600000X346.000000*%
%TD*%
%TA.AperFunction,ViaPad*%
%ADD30C,0.800000*%
%TD*%
%TA.AperFunction,Conductor*%
%ADD31C,0.250000*%
%TD*%
G04 APERTURE END LIST*
D10*
%TO.P,,1*%
%TO.N,GND*%
X-4870835Y-12743763D03*
%TO.P,,2*%
%TO.N,pos*%
X-3370835Y-12743763D03*
%TD*%
D11*
%TO.P,,*%
%TO.N,*%
X-14268932Y-19506581D03*
X-10944169Y-12642176D03*
X-12086141Y-19852301D03*
X-13126961Y-12296456D03*
D12*
%TO.P,,1*%
%TO.N,pos*%
X-10521180Y-14126623D03*
%TO.P,,2*%
%TO.N,RAW*%
X-10990484Y-17089688D03*
%TO.P,,3*%
%TO.N,N/C*%
X-11225135Y-18571220D03*
%TD*%
D13*
%TO.P,,1*%
%TO.N,RST*%
X-11564097Y-24127329D03*
%TO.P,,2*%
%TO.N,GND*%
X-14922237Y-23595451D03*
%TD*%
D14*
%TO.P,S15,1*%
%TO.N,Switch08*%
X58768177Y32972619D03*
%TO.P,S15,2*%
%TO.N,GND*%
X47092848Y31583665D03*
%TD*%
D15*
%TO.P,S9,1*%
%TO.N,Switch07*%
X38275000Y24950000D03*
%TO.P,S9,2*%
%TO.N,GND*%
X26725000Y22750000D03*
%TD*%
D16*
%TO.P,S24,1*%
%TO.N,Switch04*%
X69783029Y42477414D03*
X79758670Y41779849D03*
%TO.P,S24,2*%
%TO.N,GND*%
X74624361Y40033747D03*
X74624361Y40033747D03*
%TD*%
%TO.P,S34,1*%
%TO.N,Switch17*%
X7727213Y-35647127D03*
X17386472Y-33058937D03*
%TO.P,S34,2*%
%TO.N,GND*%
X13100362Y-36381476D03*
X13100362Y-36381476D03*
%TD*%
D17*
%TO.P,S31,1*%
%TO.N,Switch16*%
X-4189901Y-28746366D03*
%TO.P,S31,2*%
%TO.N,GND*%
X-14776943Y-33860763D03*
%TD*%
D16*
%TO.P,S4,1*%
%TO.N,Switch06*%
X21800000Y13200000D03*
X11800000Y13200000D03*
%TO.P,S4,2*%
%TO.N,GND*%
X16800000Y11100000D03*
X16800000Y11100000D03*
%TD*%
D15*
%TO.P,S3,1*%
%TO.N,Switch06*%
X20075000Y22950000D03*
%TO.P,S3,2*%
%TO.N,GND*%
X8525000Y20750000D03*
%TD*%
%TO.P,S11,1*%
%TO.N,Switch02*%
X38275000Y41950000D03*
%TO.P,S11,2*%
%TO.N,GND*%
X26725000Y39750000D03*
%TD*%
D14*
%TO.P,S17,1*%
%TO.N,Switch03*%
X59954037Y49931207D03*
%TO.P,S17,2*%
%TO.N,GND*%
X48278708Y48542253D03*
%TD*%
D18*
%TO.P,MCU1,*%
%TO.N,*%
X-11520000Y5473356D03*
X3720000Y13093356D03*
D19*
X-10250000Y10553356D03*
D18*
X3720000Y393356D03*
D20*
X-9742000Y15633356D03*
D21*
X2450000Y-7226644D03*
X2450000Y393356D03*
D18*
X3720000Y20713356D03*
D22*
X1942000Y20713356D03*
D20*
X-9742000Y10553356D03*
D19*
X-10250000Y-7226644D03*
D18*
X-11520000Y-7226644D03*
D21*
X2450000Y-2146644D03*
D18*
X3720000Y5473356D03*
D22*
X1942000Y15633356D03*
D21*
X2450000Y-4686644D03*
X2450000Y10553356D03*
X2450000Y2933356D03*
D23*
X-11520000Y20713356D03*
D19*
X-10250000Y393356D03*
D18*
X3720000Y8013356D03*
D21*
X2450000Y8013356D03*
D18*
X3720000Y-7226644D03*
X-11520000Y15633356D03*
X3720000Y18173356D03*
D19*
X-10250000Y20713356D03*
D22*
X1942000Y18173356D03*
D20*
X-9742000Y-7226644D03*
D22*
X1942000Y2933356D03*
X1942000Y-2146644D03*
D18*
X-11520000Y20713356D03*
D22*
X1942000Y-4686644D03*
D21*
X2450000Y18173356D03*
D20*
X-9742000Y13093356D03*
D19*
X-10250000Y-4686644D03*
D22*
X1942000Y13093356D03*
D18*
X-11520000Y8013356D03*
D19*
X-10250000Y5473356D03*
D18*
X-11520000Y-2146644D03*
D19*
X-10250000Y13093356D03*
X-10250000Y-2146644D03*
X-10250000Y2933356D03*
D18*
X-11520000Y18173356D03*
X3720000Y10553356D03*
X-11520000Y13093356D03*
D22*
X1942000Y393356D03*
D18*
X3720000Y-4686644D03*
X-11520000Y10553356D03*
D20*
X-9742000Y18173356D03*
D18*
X-11520000Y393356D03*
D20*
X-9742000Y393356D03*
D21*
X2450000Y15633356D03*
X2450000Y20713356D03*
D18*
X-11520000Y2933356D03*
X3720000Y2933356D03*
D21*
X2450000Y13093356D03*
D22*
X1942000Y10553356D03*
D20*
X-9742000Y2933356D03*
X-9742000Y5473356D03*
X-9742000Y20713356D03*
X-9742000Y8013356D03*
D18*
X-11520000Y-4686644D03*
D19*
X-10250000Y18173356D03*
D18*
X3720000Y15633356D03*
D19*
X-10250000Y15633356D03*
X-10250000Y8013356D03*
D20*
X-9742000Y-2146644D03*
X-9742000Y-4686644D03*
D22*
X1942000Y-7226644D03*
X1942000Y5473356D03*
D21*
X2450000Y5473356D03*
D22*
X1942000Y8013356D03*
D18*
X3720000Y-2146644D03*
D24*
%TO.P,MCU1,1*%
%TO.N,RAW*%
X-3138000Y20713356D03*
D25*
X926000Y20713356D03*
D26*
X-3138000Y20713356D03*
D25*
%TO.P,MCU1,2*%
%TO.N,GND*%
X926000Y18173356D03*
D26*
X-3138000Y18173356D03*
D24*
X-3138000Y18173356D03*
D25*
%TO.P,MCU1,3*%
%TO.N,RST*%
X926000Y15633356D03*
D26*
X-3138000Y15633356D03*
D24*
X-3138000Y15633356D03*
D26*
%TO.P,MCU1,4*%
%TO.N,VCC*%
X-3138000Y13093356D03*
D24*
X-3138000Y13093356D03*
D25*
X926000Y13093356D03*
D26*
%TO.P,MCU1,5*%
%TO.N,Switch04*%
X-3138000Y10553356D03*
D24*
X-3138000Y10553356D03*
D25*
X926000Y10553356D03*
D24*
%TO.P,MCU1,6*%
%TO.N,Switch06*%
X-3138000Y8013356D03*
D25*
X926000Y8013356D03*
D26*
X-3138000Y8013356D03*
%TO.P,MCU1,7*%
%TO.N,Switch08*%
X-3138000Y5473356D03*
D24*
X-3138000Y5473356D03*
D25*
X926000Y5473356D03*
%TO.P,MCU1,8*%
%TO.N,Switch10*%
X926000Y2933356D03*
D26*
X-3138000Y2933356D03*
D24*
X-3138000Y2933356D03*
D25*
%TO.P,MCU1,9*%
%TO.N,Switch12*%
X926000Y393356D03*
D24*
X-3138000Y393356D03*
D26*
X-3138000Y393356D03*
D24*
%TO.P,MCU1,10*%
%TO.N,Switch14*%
X-3138000Y-2146644D03*
D25*
X926000Y-2146644D03*
D26*
X-3138000Y-2146644D03*
%TO.P,MCU1,11*%
%TO.N,P16*%
X-3138000Y-4686644D03*
D24*
X-3138000Y-4686644D03*
D25*
X926000Y-4686644D03*
D24*
%TO.P,MCU1,12*%
%TO.N,Switch17*%
X-3138000Y-7226644D03*
D25*
X926000Y-7226644D03*
D26*
X-3138000Y-7226644D03*
D27*
%TO.P,MCU1,13*%
%TO.N,Switch16*%
X-4662000Y-7226644D03*
D24*
X-4662000Y-7226644D03*
D28*
X-8726000Y-7226644D03*
D27*
%TO.P,MCU1,14*%
%TO.N,Switch15*%
X-4662000Y-4686644D03*
D28*
X-8726000Y-4686644D03*
D24*
X-4662000Y-4686644D03*
%TO.P,MCU1,15*%
%TO.N,Switch13*%
X-4662000Y-2146644D03*
D27*
X-4662000Y-2146644D03*
D28*
X-8726000Y-2146644D03*
D27*
%TO.P,MCU1,16*%
%TO.N,Switch11*%
X-4662000Y393356D03*
D24*
X-4662000Y393356D03*
D28*
X-8726000Y393356D03*
D27*
%TO.P,MCU1,17*%
%TO.N,Switch09*%
X-4662000Y2933356D03*
D28*
X-8726000Y2933356D03*
D24*
X-4662000Y2933356D03*
%TO.P,MCU1,18*%
%TO.N,Switch07*%
X-4662000Y5473356D03*
D28*
X-8726000Y5473356D03*
D27*
X-4662000Y5473356D03*
%TO.P,MCU1,19*%
%TO.N,Switch05*%
X-4662000Y8013356D03*
D28*
X-8726000Y8013356D03*
D24*
X-4662000Y8013356D03*
D27*
%TO.P,MCU1,20*%
%TO.N,Switch03*%
X-4662000Y10553356D03*
D28*
X-8726000Y10553356D03*
D24*
X-4662000Y10553356D03*
%TO.P,MCU1,21*%
%TO.N,GND*%
X-4662000Y13093356D03*
D27*
X-4662000Y13093356D03*
D28*
X-8726000Y13093356D03*
D27*
%TO.P,MCU1,22*%
X-4662000Y15633356D03*
D28*
X-8726000Y15633356D03*
D24*
X-4662000Y15633356D03*
D27*
%TO.P,MCU1,23*%
%TO.N,Switch02*%
X-4662000Y18173356D03*
D24*
X-4662000Y18173356D03*
D28*
X-8726000Y18173356D03*
D27*
%TO.P,MCU1,24*%
%TO.N,Switch01*%
X-4662000Y20713356D03*
D28*
X-8726000Y20713356D03*
D24*
X-4662000Y20713356D03*
%TD*%
D15*
%TO.P,S7,1*%
%TO.N,Switch12*%
X38275000Y7950000D03*
%TO.P,S7,2*%
%TO.N,GND*%
X26725000Y5750000D03*
%TD*%
%TO.P,S1,1*%
%TO.N,Switch11*%
X20075000Y5950000D03*
%TO.P,S1,2*%
%TO.N,GND*%
X8525000Y3750000D03*
%TD*%
D16*
%TO.P,S12,1*%
%TO.N,Switch02*%
X30000000Y32200000D03*
X40000000Y32200000D03*
%TO.P,S12,2*%
%TO.N,GND*%
X35000000Y30100000D03*
X35000000Y30100000D03*
%TD*%
D14*
%TO.P,S13,1*%
%TO.N,Switch13*%
X57582317Y16014030D03*
%TO.P,S13,2*%
%TO.N,GND*%
X45906988Y14625076D03*
%TD*%
D16*
%TO.P,S14,1*%
%TO.N,Switch13*%
X48647349Y6865015D03*
X58622990Y6167450D03*
%TO.P,S14,2*%
%TO.N,GND*%
X53488681Y4421348D03*
X53488681Y4421348D03*
%TD*%
%TO.P,S2,1*%
%TO.N,Switch11*%
X11800000Y-3800000D03*
X21800000Y-3800000D03*
%TO.P,S2,2*%
%TO.N,GND*%
X16800000Y-5900000D03*
X16800000Y-5900000D03*
%TD*%
%TO.P,S20,1*%
%TO.N,Switch14*%
X67411309Y8560236D03*
X77386950Y7862671D03*
%TO.P,S20,2*%
%TO.N,GND*%
X72252641Y6116569D03*
X72252641Y6116569D03*
%TD*%
%TO.P,S18,1*%
%TO.N,Switch03*%
X60994710Y40084627D03*
X51019069Y40782192D03*
%TO.P,S18,2*%
%TO.N,GND*%
X55860401Y38338525D03*
X55860401Y38338525D03*
%TD*%
D14*
%TO.P,S23,1*%
%TO.N,Switch04*%
X78717997Y51626429D03*
%TO.P,S23,2*%
%TO.N,GND*%
X67042668Y50237475D03*
%TD*%
D16*
%TO.P,S32,1*%
%TO.N,Switch16*%
X-193Y-37717680D03*
X-9659452Y-40305870D03*
%TO.P,S32,2*%
%TO.N,GND*%
X-4286303Y-41040219D03*
X-4286303Y-41040219D03*
%TD*%
%TO.P,S28,1*%
%TO.N,Switch10*%
X88805953Y15578974D03*
X98508910Y13159755D03*
%TO.P,S28,2*%
%TO.N,GND*%
X93149396Y12331743D03*
X93149396Y12331743D03*
%TD*%
D29*
%TO.P,S25,1*%
%TO.N,Switch15*%
X95081217Y6542426D03*
%TO.P,S25,2*%
%TO.N,GND*%
X83342073Y7201974D03*
%TD*%
D16*
%TO.P,S26,1*%
%TO.N,Switch15*%
X84693281Y-916053D03*
X94396238Y-3335272D03*
%TO.P,S26,2*%
%TO.N,GND*%
X89036724Y-4163284D03*
X89036724Y-4163284D03*
%TD*%
%TO.P,S30,1*%
%TO.N,Switch05*%
X92918625Y32074002D03*
X102621582Y29654783D03*
%TO.P,S30,2*%
%TO.N,GND*%
X97262068Y28826771D03*
X97262068Y28826771D03*
%TD*%
D15*
%TO.P,S5,1*%
%TO.N,Switch01*%
X20075000Y39950000D03*
%TO.P,S5,2*%
%TO.N,GND*%
X8525000Y37750000D03*
%TD*%
D16*
%TO.P,S22,1*%
%TO.N,Switch09*%
X68597169Y25518825D03*
X78572810Y24821260D03*
%TO.P,S22,2*%
%TO.N,GND*%
X73438501Y23075158D03*
X73438501Y23075158D03*
%TD*%
%TO.P,S16,1*%
%TO.N,Switch08*%
X59808850Y23126039D03*
X49833209Y23823604D03*
%TO.P,S16,2*%
%TO.N,GND*%
X54674541Y21379937D03*
X54674541Y21379937D03*
%TD*%
%TO.P,S10,1*%
%TO.N,Switch07*%
X30000000Y15200000D03*
X40000000Y15200000D03*
%TO.P,S10,2*%
%TO.N,GND*%
X35000000Y13100000D03*
X35000000Y13100000D03*
%TD*%
D14*
%TO.P,S21,1*%
%TO.N,Switch09*%
X77532137Y34667840D03*
%TO.P,S21,2*%
%TO.N,GND*%
X65856808Y33278886D03*
%TD*%
D29*
%TO.P,S29,1*%
%TO.N,Switch05*%
X103306561Y39532481D03*
%TO.P,S29,2*%
%TO.N,GND*%
X91567417Y40192029D03*
%TD*%
%TO.P,S27,1*%
%TO.N,Switch10*%
X99193889Y23037453D03*
%TO.P,S27,2*%
%TO.N,GND*%
X87454745Y23697001D03*
%TD*%
D16*
%TO.P,S6,1*%
%TO.N,Switch01*%
X11800000Y30200000D03*
X21800000Y30200000D03*
%TO.P,S6,2*%
%TO.N,GND*%
X16800000Y28100000D03*
X16800000Y28100000D03*
%TD*%
D14*
%TO.P,S19,1*%
%TO.N,Switch14*%
X76346277Y17709251D03*
%TO.P,S19,2*%
%TO.N,GND*%
X64670948Y16320297D03*
%TD*%
D16*
%TO.P,S8,1*%
%TO.N,Switch12*%
X40000000Y-1800000D03*
X30000000Y-1800000D03*
%TO.P,S8,2*%
%TO.N,GND*%
X35000000Y-3900000D03*
X35000000Y-3900000D03*
%TD*%
D17*
%TO.P,S33,1*%
%TO.N,Switch17*%
X13196764Y-24087623D03*
%TO.P,S33,2*%
%TO.N,GND*%
X2609722Y-29202020D03*
%TD*%
D30*
%TO.N,RAW*%
X-8382000Y-16256000D03*
%TO.N,RST*%
X6096000Y11430000D03*
X6096000Y7620000D03*
X6096000Y4064000D03*
X6096000Y-2540000D03*
X-8890000Y-24130000D03*
%TD*%
D31*
%TO.N,RAW*%
X-8382000Y-16256000D02*
X-9215688Y-17089688D01*
X-9215688Y-17089688D02*
X-10990484Y-17089688D01*
%TO.N,pos*%
X-3370835Y-12743763D02*
X-3370835Y-12631165D01*
X-4318000Y-11684000D02*
X-5334000Y-11684000D01*
X-3370835Y-12631165D02*
X-4318000Y-11684000D01*
X-5334000Y-11684000D02*
X-7776623Y-14126623D01*
X-7776623Y-14126623D02*
X-10521180Y-14126623D01*
%TO.N,RST*%
X6096000Y7620000D02*
X6096000Y11430000D01*
X6096000Y-2540000D02*
X6096000Y4064000D01*
%TO.N,Switch05*%
X27690699Y28194000D02*
X23675001Y24178302D01*
X35626857Y28194000D02*
X27690699Y28194000D01*
X36896857Y29464000D02*
X35626857Y28194000D01*
X59436000Y35560000D02*
X47069669Y35560000D01*
X61780000Y37904000D02*
X59436000Y35560000D01*
X18112461Y11684000D02*
X17046461Y12750000D01*
X40973669Y29464000D02*
X36896857Y29464000D01*
X22180461Y11684000D02*
X18112461Y11684000D01*
X15615812Y12750000D02*
X9665812Y6800000D01*
X23675001Y13178540D02*
X22180461Y11684000D01*
X23675001Y24178302D02*
X23675001Y13178540D01*
X47069669Y35560000D02*
X40973669Y29464000D01*
X87088627Y37904000D02*
X61780000Y37904000D01*
X92918625Y32074002D02*
X87088627Y37904000D01*
X17046461Y12750000D02*
X15615812Y12750000D01*
X5839208Y6604000D02*
X-3252644Y6604000D01*
X9665812Y6800000D02*
X6035208Y6800000D01*
X6035208Y6800000D02*
X5839208Y6604000D01*
X-3252644Y6604000D02*
X-4662000Y8013356D01*
%TO.N,Switch11*%
X-4662000Y393356D02*
X-2847000Y-1421644D01*
X-2847000Y-1421644D02*
X-2447000Y-1021644D01*
X6848396Y-5196000D02*
X10404000Y-5196000D01*
X-2447000Y-1021644D02*
X4323644Y-1021644D01*
X4323644Y-1021644D02*
X5080000Y-1778000D01*
X5080000Y-1778000D02*
X5080000Y-3427604D01*
X5080000Y-3427604D02*
X6848396Y-5196000D01*
X10404000Y-5196000D02*
X11800000Y-3800000D01*
%TO.N,Switch13*%
X33509000Y-2559000D02*
X37103000Y-2559000D01*
X12134000Y-5646000D02*
X15044000Y-2736000D01*
X32766000Y-3302000D02*
X33509000Y-2559000D01*
X41910000Y2794000D02*
X45981015Y6865015D01*
X24892000Y-3302000D02*
X32766000Y-3302000D01*
X23053000Y-5141000D02*
X24892000Y-3302000D01*
X21244539Y-5141000D02*
X23053000Y-5141000D01*
X18839539Y-2736000D02*
X21244539Y-5141000D01*
X15044000Y-2736000D02*
X18839539Y-2736000D01*
X4577644Y-3561644D02*
X6662000Y-5646000D01*
X6662000Y-5646000D02*
X12134000Y-5646000D01*
X-2847000Y-3961644D02*
X-2447000Y-3561644D01*
X-2447000Y-3561644D02*
X4577644Y-3561644D01*
X-4662000Y-2146644D02*
X-2847000Y-3961644D01*
X37103000Y-2559000D02*
X38100000Y-3556000D01*
X38100000Y-3556000D02*
X41157282Y-3556000D01*
X41157282Y-3556000D02*
X41910000Y-2803282D01*
X41910000Y-2803282D02*
X41910000Y2794000D01*
X45981015Y6865015D02*
X48647349Y6865015D01*
%TO.N,Switch07*%
X30000000Y15200000D02*
X26332857Y15200000D01*
X12718927Y9216719D02*
X9852208Y6350000D01*
X26332857Y15200000D02*
X20349576Y9216719D01*
X20349576Y9216719D02*
X12718927Y9216719D01*
X9852208Y6350000D02*
X6221604Y6350000D01*
X6221604Y6350000D02*
X4016960Y4145356D01*
X4016960Y4145356D02*
X-3334000Y4145356D01*
X-3334000Y4145356D02*
X-4662000Y5473356D01*
%TO.N,Switch09*%
X32004000Y12192000D02*
X27686000Y7874000D01*
X27686000Y7874000D02*
X25237396Y7874000D01*
X25237396Y7874000D02*
X24344677Y8766719D01*
X24344677Y8766719D02*
X12905323Y8766719D01*
X32004000Y12210000D02*
X32004000Y12192000D01*
X34544000Y14750000D02*
X32004000Y12210000D01*
X56735242Y21242758D02*
X55118000Y22860000D01*
X35306000Y14750000D02*
X34544000Y14750000D01*
X9980604Y5842000D02*
X6350000Y5842000D01*
X36739281Y13316719D02*
X35306000Y14750000D01*
X55118000Y22860000D02*
X51054000Y22860000D01*
X51054000Y22860000D02*
X41510719Y13316719D01*
X41510719Y13316719D02*
X36739281Y13316719D01*
X64321102Y21242758D02*
X56735242Y21242758D01*
X68597169Y25518825D02*
X64321102Y21242758D01*
X12905323Y8766719D02*
X9980604Y5842000D01*
X6350000Y5842000D02*
X5295000Y4787000D01*
X5295000Y4787000D02*
X5295000Y2917365D01*
X5295000Y2917365D02*
X3901635Y1524000D01*
X3901635Y1524000D02*
X-3252644Y1524000D01*
X-3252644Y1524000D02*
X-4662000Y2933356D01*
%TO.N,Switch04*%
X14166000Y18097395D02*
X11816605Y15748000D01*
X14166000Y23114000D02*
X14166000Y18097395D01*
X16452000Y25400000D02*
X14166000Y23114000D01*
X20830792Y25400000D02*
X16452000Y25400000D01*
X11816605Y15748000D02*
X8764396Y15748000D01*
X36826461Y30030000D02*
X35555461Y28759000D01*
X4845000Y10087365D02*
X3901635Y9144000D01*
X24189792Y28759000D02*
X20830792Y25400000D01*
X40903273Y30030000D02*
X36826461Y30030000D01*
X46883273Y36010000D02*
X40903273Y30030000D01*
X59124000Y36010000D02*
X46883273Y36010000D01*
X65591414Y42477414D02*
X59124000Y36010000D01*
X35555461Y28759000D02*
X24189792Y28759000D01*
X69783029Y42477414D02*
X65591414Y42477414D01*
X8764396Y15748000D02*
X4845000Y11828604D01*
X4845000Y11828604D02*
X4845000Y10087365D01*
X3901635Y9144000D02*
X2335356Y9144000D01*
X2335356Y9144000D02*
X926000Y10553356D01*
%TO.N,GND*%
X-4662000Y15633356D02*
X-4662000Y13093356D01*
X-3138000Y18173356D02*
X-3138000Y17157356D01*
X-3138000Y17157356D02*
X-4662000Y15633356D01*
X-14776943Y-33860763D02*
X-14776943Y-23740745D01*
X-14776943Y-23740745D02*
X-14922237Y-23595451D01*
%TO.N,RST*%
X-11564097Y-24127329D02*
X-8892671Y-24127329D01*
X-8892671Y-24127329D02*
X-8890000Y-24130000D01*
%TO.N,GND*%
X-13170786Y-21844000D02*
X-8382000Y-21844000D01*
X-14922237Y-23595451D02*
X-13170786Y-21844000D01*
X-8382000Y-21844000D02*
X-4870835Y-18332835D01*
X-4870835Y-18332835D02*
X-4870835Y-12743763D01*
%TO.N,Switch16*%
X-4189901Y-28746366D02*
X5080000Y-19476465D01*
X5080000Y-19476465D02*
X5080000Y-16968644D01*
X5080000Y-16968644D02*
X-4662000Y-7226644D01*
%TO.N,Switch03*%
X10922000Y18542000D02*
X4257356Y11877356D01*
X13716000Y19558000D02*
X12700000Y18542000D01*
X25528396Y30734000D02*
X20702396Y25908000D01*
X16256000Y25908000D02*
X13716000Y23368000D01*
X20702396Y25908000D02*
X16256000Y25908000D01*
X30988000Y30734000D02*
X25528396Y30734000D01*
X40716877Y30480000D02*
X38608000Y30480000D01*
X12700000Y18542000D02*
X10922000Y18542000D01*
X32004000Y31750000D02*
X30988000Y30734000D01*
X37338000Y31750000D02*
X32004000Y31750000D01*
X13716000Y23368000D02*
X13716000Y19558000D01*
X38608000Y30480000D02*
X37338000Y31750000D01*
X51019069Y40782192D02*
X40716877Y30480000D01*
X4257356Y11877356D02*
X-3338000Y11877356D01*
X-3338000Y11877356D02*
X-4662000Y10553356D01*
%TO.N,Switch07*%
X36235000Y15200000D02*
X37044000Y15200000D01*
X37044000Y15200000D02*
X37846000Y16002000D01*
X37846000Y16002000D02*
X37846000Y24521000D01*
X37846000Y24521000D02*
X38275000Y24950000D01*
%TO.N,GND*%
X26725000Y22750000D02*
X26725000Y26591905D01*
X26725000Y26591905D02*
X27819095Y27686000D01*
X27819095Y27686000D02*
X43195183Y27686000D01*
X43195183Y27686000D02*
X47092848Y31583665D01*
X8525000Y37750000D02*
X12685000Y41910000D01*
X12685000Y41910000D02*
X21844000Y41910000D01*
X21844000Y41910000D02*
X23114000Y40640000D01*
X23114000Y40640000D02*
X25835000Y40640000D01*
X25835000Y40640000D02*
X26725000Y39750000D01*
%TO.N,Switch01*%
X11800000Y30200000D02*
X11275604Y30200000D01*
X11275604Y30200000D02*
X8186000Y27110396D01*
X8186000Y27110396D02*
X8186000Y23554396D01*
X8186000Y23554396D02*
X7456604Y22825000D01*
X-3537000Y21838356D02*
X-4662000Y20713356D01*
X7456604Y22825000D02*
X6713604Y22825000D01*
X6713604Y22825000D02*
X5726960Y21838356D01*
X5726960Y21838356D02*
X-3537000Y21838356D01*
%TO.N,Switch02*%
X15505539Y28702000D02*
X16244539Y29441000D01*
X10414000Y28702000D02*
X15505539Y28702000D01*
X16244539Y29441000D02*
X17355461Y29441000D01*
X6900000Y22375000D02*
X7643000Y22375000D01*
X17355461Y29441000D02*
X18094461Y28702000D01*
X5842000Y21317000D02*
X6900000Y22375000D01*
X-4662000Y18173356D02*
X-3338000Y19497356D01*
X5019356Y19497356D02*
X5842000Y20320000D01*
X8636000Y26924000D02*
X10414000Y28702000D01*
X8636000Y23368000D02*
X8636000Y26924000D01*
X-3338000Y19497356D02*
X5019356Y19497356D01*
X7643000Y22375000D02*
X8636000Y23368000D01*
X5842000Y20320000D02*
X5842000Y21317000D01*
X18094461Y28702000D02*
X22860000Y28702000D01*
X22860000Y28702000D02*
X26358000Y32200000D01*
X26358000Y32200000D02*
X30000000Y32200000D01*
%TO.N,Switch09*%
X72898000Y31496000D02*
X76200000Y31496000D01*
X76200000Y31496000D02*
X77224470Y32520470D01*
X68597169Y25518825D02*
X68597169Y27195169D01*
X68597169Y27195169D02*
X72898000Y31496000D01*
X77224470Y32520470D02*
X77224470Y34667840D01*
%TO.N,GND*%
X64670948Y17680948D02*
X70104000Y23114000D01*
X64670948Y16320297D02*
X64670948Y17680948D01*
X70104000Y23114000D02*
X70142842Y23075158D01*
X70142842Y23075158D02*
X73438501Y23075158D01*
X8525000Y3750000D02*
X13091719Y8316719D01*
X13091719Y8316719D02*
X24158281Y8316719D01*
X24158281Y8316719D02*
X26725000Y5750000D01*
X26725000Y5750000D02*
X26725000Y6230003D01*
X26725000Y6230003D02*
X33594997Y13100000D01*
X33594997Y13100000D02*
X35000000Y13100000D01*
X45906988Y14625076D02*
X42965912Y11684000D01*
X42965912Y11684000D02*
X36416000Y11684000D01*
X36416000Y11684000D02*
X35000000Y13100000D01*
X83342073Y7201974D02*
X82804000Y7740047D01*
X82804000Y16256000D02*
X75984842Y23075158D01*
X82804000Y7740047D02*
X82804000Y16256000D01*
X75984842Y23075158D02*
X73438501Y23075158D01*
X65856808Y33278886D02*
X70031922Y37454000D01*
X70031922Y37454000D02*
X78116000Y37454000D01*
X78116000Y37454000D02*
X87454745Y28115255D01*
X87454745Y28115255D02*
X87454745Y23697001D01*
X87454745Y23697001D02*
X86832902Y23075158D01*
X86832902Y23075158D02*
X73438501Y23075158D01*
X47092848Y31583665D02*
X47092848Y32886840D01*
X47092848Y32886840D02*
X49316008Y35110000D01*
X49316008Y35110000D02*
X64025694Y35110000D01*
X64025694Y35110000D02*
X65856808Y33278886D01*
X97262068Y28826771D02*
X97262068Y31515932D01*
X97262068Y31515932D02*
X94742000Y34036000D01*
X94742000Y36576000D02*
X91567417Y39750583D01*
X91567417Y39750583D02*
X91567417Y40192029D01*
X94742000Y34036000D02*
X94742000Y36576000D01*
%TO.N,Switch05*%
X102621582Y29654783D02*
X102362000Y29914365D01*
X102362000Y29914365D02*
X102362000Y38587920D01*
X102362000Y38587920D02*
X103306561Y39532481D01*
X92918625Y32074002D02*
X92918625Y30017375D01*
X92918625Y30017375D02*
X95758000Y27178000D01*
X95758000Y27178000D02*
X101346000Y27178000D01*
X101346000Y27178000D02*
X102621582Y28453582D01*
X102621582Y28453582D02*
X102621582Y29654783D01*
%TO.N,GND*%
X74624361Y40033747D02*
X74624361Y42977639D01*
X74624361Y42977639D02*
X67364525Y50237475D01*
X67364525Y50237475D02*
X67042668Y50237475D01*
%TO.N,Switch04*%
X69783029Y42477414D02*
X69783029Y41846193D01*
X69783029Y41846193D02*
X72936475Y38692747D01*
X72936475Y38692747D02*
X76671568Y38692747D01*
X76671568Y38692747D02*
X79758670Y41779849D01*
%TO.N,GND*%
X48278708Y48542253D02*
X48278708Y46500708D01*
X48278708Y46500708D02*
X45974000Y44196000D01*
X45974000Y44196000D02*
X31750000Y44196000D01*
X31750000Y44196000D02*
X27304000Y39750000D01*
X27304000Y39750000D02*
X26725000Y39750000D01*
X55860401Y38338525D02*
X53086000Y41112926D01*
X53086000Y41112926D02*
X53086000Y44450000D01*
X53086000Y44450000D02*
X51308000Y46228000D01*
X51308000Y46228000D02*
X50292000Y46228000D01*
X50292000Y46228000D02*
X48278708Y48241292D01*
X48278708Y48241292D02*
X48278708Y48542253D01*
%TO.N,Switch03*%
X60994710Y40084627D02*
X57740083Y36830000D01*
X57740083Y36830000D02*
X54536631Y36830000D01*
X54536631Y36830000D02*
X51019069Y40347562D01*
X51019069Y40347562D02*
X51019069Y40782192D01*
%TO.N,GND*%
X8525000Y20750000D02*
X15875000Y28100000D01*
X15875000Y28100000D02*
X16800000Y28100000D01*
X13100362Y-36381476D02*
X16977215Y-36381476D01*
X16977215Y-36381476D02*
X19269753Y-34088938D01*
X19269753Y-26635753D02*
X14732000Y-22098000D01*
X19269753Y-34088938D02*
X19269753Y-26635753D01*
X14732000Y-22098000D02*
X14732000Y-6858000D01*
X14732000Y-6858000D02*
X15690000Y-5900000D01*
X15690000Y-5900000D02*
X16800000Y-5900000D01*
%TO.N,Switch15*%
X57404000Y4318000D02*
X55959652Y5762348D01*
X58782090Y4318000D02*
X57404000Y4318000D01*
X55959652Y5762348D02*
X50212348Y5762348D01*
X61141045Y6676955D02*
X58782090Y4318000D01*
X69414955Y6676955D02*
X61141045Y6676955D01*
X70358000Y7620000D02*
X69414955Y6676955D01*
X72898000Y7620000D02*
X70358000Y7620000D01*
X12320397Y-6096000D02*
X-3252644Y-6096000D01*
X48768000Y4318000D02*
X44070396Y4318000D01*
X50212348Y5762348D02*
X48768000Y4318000D01*
X74129746Y6388254D02*
X72898000Y7620000D01*
X42360000Y-2989678D02*
X40015678Y-5334000D01*
X40015678Y-5334000D02*
X33020000Y-5334000D01*
X78825814Y6388254D02*
X74129746Y6388254D01*
X84693281Y520787D02*
X78825814Y6388254D01*
X15230397Y-3186000D02*
X12320397Y-6096000D01*
X84693281Y-916053D02*
X84693281Y520787D01*
X44070396Y4318000D02*
X42360000Y2607604D01*
X42360000Y2607604D02*
X42360000Y-2989678D01*
X33020000Y-5334000D02*
X32763000Y-5591000D01*
X32763000Y-5591000D02*
X21058143Y-5591000D01*
X21058143Y-5591000D02*
X18653143Y-3186000D01*
X18653143Y-3186000D02*
X15230397Y-3186000D01*
X-3252644Y-6096000D02*
X-4662000Y-4686644D01*
%TO.N,Switch11*%
X11800000Y-3800000D02*
X13314000Y-2286000D01*
X13314000Y-2286000D02*
X20286000Y-2286000D01*
X20286000Y-2286000D02*
X21800000Y-3800000D01*
%TO.N,GND*%
X4826000Y-36068000D02*
X4826000Y-35814000D01*
X4826000Y-35814000D02*
X4826000Y-31418298D01*
X-4286303Y-41040219D02*
X-400219Y-41040219D01*
X-400219Y-41040219D02*
X4826000Y-35814000D01*
X6155475Y-37397475D02*
X4826000Y-36068000D01*
X12084363Y-37397475D02*
X6155475Y-37397475D01*
X13100362Y-36381476D02*
X12084363Y-37397475D01*
X4826000Y-31418298D02*
X2609722Y-29202020D01*
X-14776943Y-33860763D02*
X-14776943Y-37084840D01*
X-14776943Y-37084840D02*
X-9951783Y-41910000D01*
X-9951783Y-41910000D02*
X-5156084Y-41910000D01*
X-5156084Y-41910000D02*
X-4286303Y-41040219D01*
%TO.N,Switch17*%
X13196764Y-24087623D02*
X-3138000Y-7752859D01*
X-3138000Y-7752859D02*
X-3138000Y-7226644D01*
X13196764Y-24087623D02*
X13196764Y-28869229D01*
X13196764Y-28869229D02*
X17386472Y-33058937D01*
%TO.N,Switch16*%
X-4189901Y-28746366D02*
X-4189901Y-33527972D01*
X-4189901Y-33527972D02*
X-193Y-37717680D01*
%TO.N,Switch07*%
X36235000Y15200000D02*
X40000000Y15200000D01*
X30000000Y15200000D02*
X36235000Y15200000D01*
%TO.N,Switch14*%
X74600236Y8560236D02*
X76689385Y8560236D01*
X67411309Y8560236D02*
X74600236Y8560236D01*
X75565000Y9525000D02*
X75565000Y16510000D01*
X74600236Y8560236D02*
X75565000Y9525000D01*
%TO.N,Switch15*%
X91977019Y-916053D02*
X94347748Y1454676D01*
X94347748Y1454676D02*
X94347748Y6542426D01*
%TO.N,Switch04*%
X79758670Y41779849D02*
X78105000Y43433519D01*
X78105000Y43433519D02*
X78105000Y51013432D01*
X78105000Y51013432D02*
X78717997Y51626429D01*
%TO.N,Switch03*%
X60994710Y40084627D02*
X59055000Y42024337D01*
X59055000Y42024337D02*
X59055000Y48895000D01*
%TO.N,Switch01*%
X21800000Y30200000D02*
X19685000Y32315000D01*
X19685000Y32315000D02*
X19685000Y38735000D01*
%TO.N,Switch02*%
X40000000Y32200000D02*
X38100000Y34100000D01*
X38100000Y34100000D02*
X38100000Y40640000D01*
%TO.N,Switch13*%
X58622990Y6167450D02*
X58622990Y8697414D01*
X58622990Y8697414D02*
X57004930Y10315474D01*
X57004930Y10315474D02*
X57004930Y15436643D01*
X57004930Y15436643D02*
X57582317Y16014030D01*
%TO.N,Switch12*%
X40000000Y640000D02*
X38100000Y2540000D01*
X40000000Y-1800000D02*
X40000000Y640000D01*
X38100000Y2540000D02*
X38100000Y7775000D01*
X38100000Y7775000D02*
X38275000Y7950000D01*
%TO.N,Switch11*%
X21800000Y-1480000D02*
X20320000Y0D01*
X21800000Y-3800000D02*
X21800000Y-1480000D01*
X20320000Y0D02*
X20246697Y0D01*
X20246697Y0D02*
X19924999Y321698D01*
X19924999Y321698D02*
X19924999Y5799999D01*
X19924999Y5799999D02*
X20075000Y5950000D01*
%TO.N,Switch10*%
X99193889Y23037453D02*
X98121474Y21965038D01*
X98121474Y21965038D02*
X98121474Y17610757D01*
X98121474Y17610757D02*
X96089691Y15578974D01*
%TO.N,Switch08*%
X49833209Y23823604D02*
X49833209Y25260444D01*
X49833209Y25260444D02*
X54345534Y29772769D01*
X54345534Y29772769D02*
X55568327Y29772769D01*
X55568327Y29772769D02*
X58768177Y32972619D01*
%TO.N,Switch07*%
X38275000Y23946981D02*
X38275000Y24950000D01*
%TO.N,Switch06*%
X11800000Y13200000D02*
X11800000Y15094999D01*
X11800000Y15094999D02*
X19655001Y22950000D01*
X19655001Y22950000D02*
X20075000Y22950000D01*
%TO.N,Switch01*%
X19630000Y39950000D02*
X20075000Y39950000D01*
%TO.N,Switch16*%
X-9659452Y-40305870D02*
X-7071262Y-37717680D01*
X-7071262Y-37717680D02*
X-193Y-37717680D01*
%TO.N,Switch17*%
X7727213Y-35647127D02*
X10315403Y-33058937D01*
X10315403Y-33058937D02*
X17386472Y-33058937D01*
%TO.N,Switch12*%
X30000000Y-1800000D02*
X40000000Y-1800000D01*
%TO.N,Switch06*%
X11800000Y13200000D02*
X21800000Y13200000D01*
%TO.N,Switch08*%
X49833209Y23823604D02*
X59111285Y23823604D01*
X59111285Y23823604D02*
X59808850Y23126039D01*
%TO.N,Switch13*%
X48647349Y6865015D02*
X57925425Y6865015D01*
X57925425Y6865015D02*
X58622990Y6167450D01*
%TO.N,Switch09*%
X68597169Y25518825D02*
X77875245Y25518825D01*
X77875245Y25518825D02*
X78572810Y24821260D01*
%TO.N,Switch14*%
X76689385Y8560236D02*
X77386950Y7862671D01*
%TO.N,Switch15*%
X84693281Y-916053D02*
X91977019Y-916053D01*
X91977019Y-916053D02*
X94396238Y-3335272D01*
%TO.N,Switch10*%
X88805953Y15578974D02*
X96089691Y15578974D01*
X96089691Y15578974D02*
X98508910Y13159755D01*
%TO.N,Switch02*%
X30000000Y32200000D02*
X40000000Y32200000D01*
%TO.N,Switch01*%
X11800000Y30200000D02*
X21800000Y30200000D01*
%TD*%
M02*
