%TF.GenerationSoftware,KiCad,Pcbnew,6.0.6-3a73a75311~116~ubuntu22.04.1*%
%TF.CreationDate,2022-07-26T19:17:06+02:00*%
%TF.ProjectId,kiboard,6b69626f-6172-4642-9e6b-696361645f70,v1.0.0*%
%TF.SameCoordinates,Original*%
%TF.FileFunction,Legend,Bot*%
%TF.FilePolarity,Positive*%
%FSLAX46Y46*%
G04 Gerber Fmt 4.6, Leading zero omitted, Abs format (unit mm)*
G04 Created by KiCad (PCBNEW 6.0.6-3a73a75311~116~ubuntu22.04.1) date 2022-07-26 19:17:06*
%MOMM*%
%LPD*%
G01*
G04 APERTURE LIST*
%ADD10C,0.150000*%
%ADD11C,1.000000*%
G04 APERTURE END LIST*
D10*
X14301255Y-20753593D02*
X13938372Y-19298149D01*
X13469573Y-20960954D02*
X13885973Y-19973751D01*
X13106690Y-19505511D02*
X14145734Y-20129831D01*
X12845811Y-21116476D02*
X12482928Y-19661032D01*
X11477513Y-20647863D02*
X11286873Y-20769010D01*
X11234846Y-20855597D01*
X11200100Y-21011491D01*
X11251940Y-21219411D01*
X11355807Y-21340745D01*
X11442394Y-21392772D01*
X11598288Y-21427518D01*
X12152743Y-21289277D01*
X11789860Y-19833833D01*
X11304712Y-19954794D01*
X11183379Y-20058661D01*
X11131352Y-20145248D01*
X11096605Y-20301142D01*
X11131166Y-20439756D01*
X11235033Y-20561089D01*
X11321620Y-20613116D01*
X11477513Y-20647863D01*
X11962661Y-20526902D01*
X10057189Y-20265837D02*
X9779962Y-20334957D01*
X9658628Y-20438824D01*
X9554575Y-20611998D01*
X9554388Y-20906506D01*
X9675349Y-21391654D01*
X9813777Y-21651601D01*
X9986951Y-21755654D01*
X10142845Y-21790401D01*
X10420072Y-21721280D01*
X10541405Y-21617413D01*
X10645459Y-21444239D01*
X10645645Y-21149732D01*
X10524684Y-20664584D01*
X10386257Y-20404637D01*
X10213083Y-20300583D01*
X10057189Y-20265837D01*
X9138175Y-21599202D02*
X8445106Y-21772003D01*
X9380469Y-21980482D02*
X8532439Y-20646000D01*
X8410174Y-22222404D01*
X7093344Y-22550727D02*
X7405690Y-21736698D01*
X7925026Y-22343365D02*
X7562143Y-20887922D01*
X7007688Y-21026163D01*
X6886355Y-21130030D01*
X6834328Y-21216617D01*
X6799581Y-21372511D01*
X6851422Y-21580431D01*
X6955289Y-21701765D01*
X7041876Y-21753791D01*
X7197770Y-21788538D01*
X7752224Y-21650297D01*
X6469582Y-22706248D02*
X6106699Y-21250805D01*
X5760165Y-21337205D01*
X5569525Y-21458352D01*
X5465471Y-21631526D01*
X5430725Y-21787420D01*
X5430538Y-22081928D01*
X5482379Y-22289848D01*
X5620806Y-22549795D01*
X5724673Y-22671129D01*
X5897847Y-22775182D01*
X6123048Y-22792649D01*
X6469582Y-22706248D01*
X3265119Y-21959290D02*
X3126505Y-21993850D01*
X3005172Y-22097717D01*
X2953145Y-22184304D01*
X2918398Y-22340198D01*
X2918212Y-22634706D01*
X3004613Y-22981240D01*
X3143040Y-23241187D01*
X3246907Y-23362521D01*
X3333494Y-23414547D01*
X3489388Y-23449294D01*
X3628002Y-23414734D01*
X3749335Y-23310867D01*
X3801362Y-23224280D01*
X3836109Y-23068386D01*
X3836295Y-22773878D01*
X3749894Y-22427344D01*
X3611467Y-22167397D01*
X3507600Y-22046063D01*
X3421013Y-21994037D01*
X3265119Y-21959290D01*
X1878982Y-22304893D02*
X1740369Y-22339453D01*
X1619035Y-22443320D01*
X1567008Y-22529907D01*
X1532262Y-22685801D01*
X1532075Y-22980308D01*
X1618476Y-23326843D01*
X1756903Y-23586790D01*
X1860771Y-23708123D01*
X1947358Y-23760150D01*
X2103251Y-23794897D01*
X2241865Y-23760336D01*
X2363199Y-23656469D01*
X2415225Y-23569882D01*
X2449972Y-23413988D01*
X2450158Y-23119481D01*
X2363757Y-22772947D01*
X2225330Y-22513000D01*
X2121463Y-22391666D01*
X2034876Y-22339639D01*
X1878982Y-22304893D01*
X370580Y-24226900D02*
X1202262Y-24019538D01*
X786421Y-24123219D02*
X423539Y-22667776D01*
X613993Y-22841136D01*
X787167Y-22945189D01*
X943060Y-22979936D01*
X-391421Y-23827967D02*
X-1500331Y-24104449D01*
X-2055158Y-24831705D02*
X-2418041Y-23376261D01*
X-2764575Y-23462662D01*
X-2955215Y-23583809D01*
X-3059269Y-23756983D01*
X-3094015Y-23912877D01*
X-3094202Y-24207384D01*
X-3042361Y-24415305D01*
X-2903934Y-24675252D01*
X-2800067Y-24796586D01*
X-2626893Y-24900639D01*
X-2401692Y-24918105D01*
X-2055158Y-24831705D01*
X-4342284Y-25401949D02*
X-4029937Y-24587920D01*
X-3510601Y-25194588D02*
X-3873484Y-23739144D01*
X-4427939Y-23877385D01*
X-4549273Y-23981252D01*
X-4601299Y-24067839D01*
X-4636046Y-24223733D01*
X-4584205Y-24431653D01*
X-4480338Y-24552987D01*
X-4393751Y-24605014D01*
X-4237858Y-24639760D01*
X-3683403Y-24501519D01*
X-5000419Y-25124349D02*
X-5693487Y-25297151D01*
X-4758125Y-25505630D02*
X-5606155Y-24171147D01*
X-5728420Y-25747552D01*
X-6888797Y-25227099D02*
X-6403650Y-25106138D01*
X-6213568Y-25868513D02*
X-6576451Y-24413069D01*
X-7269519Y-24585871D01*
X-7616054Y-24672271D02*
X-8447736Y-24879633D01*
X-7669012Y-26231396D02*
X-8031895Y-24775952D01*
%TO.C,MCU1*%
X2450000Y21983356D02*
X2450000Y19443356D01*
X2450000Y21983356D02*
X4990000Y21983356D01*
X4990000Y19443356D02*
X4990000Y21983356D01*
X2450000Y19443356D02*
X4990000Y19443356D01*
%TD*%
D11*
%TO.C,*%
X-4870835Y-12743763D03*
X-3370835Y-12743763D03*
%TD*%
M02*
